# xmcd CD Database Entry
#
# Track frame offsets:
# 150
# 12820
# 26570
# 36517
# 50050
# 63540
# 75955
# 89097
# 101040
# 112717
# 130997
# 147485
# 158362
# 170727
# 182537
# 195270
# 207767
# 218370
# 229315
# 245435
#
# Disc length: 3467 seconds
#
# Revision: 2
# Processed by: cddbd v1.4b41PL1 Copyright (c) Steve Scherf et al.
# Submitted via: tcd 2.0b
#
DISCID=0a0d8914
DTITLE=John Lee Hooker - The Very Best Of CD1
DYEAR=1900
DGENRE=
TTITLE0=Mambo Chillun
TTITLE1=Time Is Marchin'
TTITLE2=Dimples
TTITLE3=Every Night
TTITLE4=Baby Lee
TTITLE5=Crawlin' Black Spider
TTITLE6=I'm So Excited
TTITLE7=Mama, You Got A Daughter
TTITLE8=I Love You Honey
TTITLE9=House Rent Boogie
TTITLE10=Trying To Find A Woman
TTITLE11=Maudie
TTITLE12=I'm In The Mood
TTITLE13=Boogie Chillun
TTITLE14=Hobo Blues
TTITLE15=Crawlin' Kingsnake
TTITLE16=Dusty Road
TTITLE17=No Shoes
TTITLE18=My First Wife Left Me
TTITLE19=Moanin' Blues
EXTD=
EXTT0=
EXTT1=
EXTT2=
EXTT3=
EXTT4=
EXTT5=
EXTT6=
EXTT7=
EXTT8=
EXTT9=
EXTT10=
EXTT11=
EXTT12=
EXTT13=
EXTT14=
EXTT15=
EXTT16=
EXTT17=
EXTT18=
EXTT19=
PLAYORDER=
